<mxfile host="Electron" modified="2023-06-14T02:32:44.633Z" agent="Mozilla/5.0 (Windows NT 10.0; Win64; x64) AppleWebKit/537.36 (KHTML, like Gecko) draw.io/21.1.2 Chrome/106.0.5249.199 Electron/21.4.3 Safari/537.36" etag="OrVMYmxO589YMkajIvPM" version="21.1.2" type="device" pages="2">
  <diagram id="SDveA9efIdS8y6Z3bIXn" name="Page-1">
    <mxGraphModel dx="1434" dy="844" grid="1" gridSize="10" guides="1" tooltips="1" connect="1" arrows="1" fold="1" page="1" pageScale="1" pageWidth="827" pageHeight="1169" math="0" shadow="0">
      <root>
        <mxCell id="0" />
        <mxCell id="1" parent="0" />
        <mxCell id="I_TGFrH33rZZs5FY5V3y-12" style="edgeStyle=orthogonalEdgeStyle;rounded=0;orthogonalLoop=1;jettySize=auto;html=1;exitX=0.5;exitY=1;exitDx=0;exitDy=0;entryX=0.5;entryY=0;entryDx=0;entryDy=0;fontSize=16;" parent="1" source="I_TGFrH33rZZs5FY5V3y-1" target="I_TGFrH33rZZs5FY5V3y-2" edge="1">
          <mxGeometry relative="1" as="geometry" />
        </mxCell>
        <mxCell id="I_TGFrH33rZZs5FY5V3y-1" value="Client" style="rounded=1;whiteSpace=wrap;html=1;verticalAlign=top;fontSize=16;fontStyle=1;fillColor=#f5f5f5;strokeColor=#666666;fontColor=#333333;" parent="1" vertex="1">
          <mxGeometry x="66.5" y="160" width="420" height="70" as="geometry" />
        </mxCell>
        <mxCell id="I_TGFrH33rZZs5FY5V3y-14" style="edgeStyle=orthogonalEdgeStyle;rounded=0;orthogonalLoop=1;jettySize=auto;html=1;exitX=0.25;exitY=1;exitDx=0;exitDy=0;entryX=0.5;entryY=0;entryDx=0;entryDy=0;fontSize=16;" parent="1" source="I_TGFrH33rZZs5FY5V3y-2" target="I_TGFrH33rZZs5FY5V3y-3" edge="1">
          <mxGeometry relative="1" as="geometry" />
        </mxCell>
        <mxCell id="I_TGFrH33rZZs5FY5V3y-18" style="edgeStyle=orthogonalEdgeStyle;rounded=0;orthogonalLoop=1;jettySize=auto;html=1;exitX=0.75;exitY=1;exitDx=0;exitDy=0;entryX=0.5;entryY=0;entryDx=0;entryDy=0;fontSize=16;" parent="1" source="I_TGFrH33rZZs5FY5V3y-2" target="I_TGFrH33rZZs5FY5V3y-16" edge="1">
          <mxGeometry relative="1" as="geometry" />
        </mxCell>
        <mxCell id="I_TGFrH33rZZs5FY5V3y-2" value="Job Manager" style="rounded=1;whiteSpace=wrap;html=1;fontSize=16;verticalAlign=top;fontStyle=1;fillColor=#f5f5f5;strokeColor=#666666;fontColor=#333333;" parent="1" vertex="1">
          <mxGeometry x="66.5" y="290" width="420" height="300" as="geometry" />
        </mxCell>
        <mxCell id="I_TGFrH33rZZs5FY5V3y-3" value="Task Manager" style="rounded=1;whiteSpace=wrap;html=1;fontSize=16;verticalAlign=bottom;fontStyle=1;fillColor=#dae8fc;strokeColor=#6c8ebf;" parent="1" vertex="1">
          <mxGeometry x="50" y="720" width="200" height="70" as="geometry" />
        </mxCell>
        <mxCell id="I_TGFrH33rZZs5FY5V3y-4" value="Actor System" style="rounded=1;whiteSpace=wrap;html=1;fontSize=14;" parent="1" vertex="1">
          <mxGeometry x="162.5" y="190" width="230" height="30" as="geometry" />
        </mxCell>
        <mxCell id="I_TGFrH33rZZs5FY5V3y-5" value="Actor System" style="rounded=1;whiteSpace=wrap;html=1;fontSize=14;" parent="1" vertex="1">
          <mxGeometry x="122.5" y="530" width="310" height="30" as="geometry" />
        </mxCell>
        <mxCell id="I_TGFrH33rZZs5FY5V3y-6" value="Dataflow Graph" style="rounded=1;whiteSpace=wrap;html=1;fontSize=16;fillColor=#d5e8d4;strokeColor=#82b366;" parent="1" vertex="1">
          <mxGeometry x="123" y="340" width="127" height="40" as="geometry" />
        </mxCell>
        <mxCell id="I_TGFrH33rZZs5FY5V3y-7" value="Task Scheduling" style="rounded=1;whiteSpace=wrap;html=1;fontSize=16;fillColor=#ffe6cc;strokeColor=#d79b00;" parent="1" vertex="1">
          <mxGeometry x="303" y="340" width="127" height="40" as="geometry" />
        </mxCell>
        <mxCell id="I_TGFrH33rZZs5FY5V3y-8" value="Checkpoint Coordinator" style="rounded=1;whiteSpace=wrap;html=1;fontSize=16;fillColor=#e1d5e7;strokeColor=#9673a6;" parent="1" vertex="1">
          <mxGeometry x="123" y="400" width="127" height="40" as="geometry" />
        </mxCell>
        <mxCell id="I_TGFrH33rZZs5FY5V3y-9" value="Recovery Metadata" style="rounded=1;whiteSpace=wrap;html=1;fontSize=16;fillColor=#fff2cc;strokeColor=#d6b656;" parent="1" vertex="1">
          <mxGeometry x="303" y="400" width="127" height="40" as="geometry" />
        </mxCell>
        <mxCell id="I_TGFrH33rZZs5FY5V3y-10" value="Resource Management" style="rounded=1;whiteSpace=wrap;html=1;fontSize=16;fillColor=#ffe6cc;strokeColor=#d79b00;" parent="1" vertex="1">
          <mxGeometry x="303" y="460" width="127" height="40" as="geometry" />
        </mxCell>
        <mxCell id="I_TGFrH33rZZs5FY5V3y-11" value="Job Dispatcher" style="rounded=1;whiteSpace=wrap;html=1;fontSize=16;fillColor=#f8cecc;strokeColor=#b85450;" parent="1" vertex="1">
          <mxGeometry x="123" y="460" width="127" height="40" as="geometry" />
        </mxCell>
        <mxCell id="I_TGFrH33rZZs5FY5V3y-13" value="Job Graph" style="text;html=1;strokeColor=none;fillColor=none;align=center;verticalAlign=middle;whiteSpace=wrap;rounded=0;fontSize=16;" parent="1" vertex="1">
          <mxGeometry x="286.5" y="250" width="90" height="20" as="geometry" />
        </mxCell>
        <mxCell id="I_TGFrH33rZZs5FY5V3y-15" value="Actor System" style="rounded=1;whiteSpace=wrap;html=1;fontSize=14;" parent="1" vertex="1">
          <mxGeometry x="84" y="730" width="132" height="30" as="geometry" />
        </mxCell>
        <mxCell id="I_TGFrH33rZZs5FY5V3y-16" value="Task Manager" style="rounded=1;whiteSpace=wrap;html=1;fontSize=16;verticalAlign=bottom;fontStyle=1;fillColor=#dae8fc;strokeColor=#6c8ebf;" parent="1" vertex="1">
          <mxGeometry x="303" y="720" width="200" height="70" as="geometry" />
        </mxCell>
        <mxCell id="I_TGFrH33rZZs5FY5V3y-17" value="Actor System" style="rounded=1;whiteSpace=wrap;html=1;fontSize=14;" parent="1" vertex="1">
          <mxGeometry x="337" y="730" width="132" height="30" as="geometry" />
        </mxCell>
        <mxCell id="I_TGFrH33rZZs5FY5V3y-19" value="Deploy Task" style="text;html=1;strokeColor=none;fillColor=none;align=center;verticalAlign=middle;whiteSpace=wrap;rounded=0;fontSize=16;" parent="1" vertex="1">
          <mxGeometry x="50" y="630" width="120" height="20" as="geometry" />
        </mxCell>
        <mxCell id="I_TGFrH33rZZs5FY5V3y-20" value="Deploy Task" style="text;html=1;strokeColor=none;fillColor=none;align=center;verticalAlign=middle;whiteSpace=wrap;rounded=0;fontSize=16;" parent="1" vertex="1">
          <mxGeometry x="376.5" y="630" width="120" height="20" as="geometry" />
        </mxCell>
        <mxCell id="I_TGFrH33rZZs5FY5V3y-21" value="Task Manager" style="rounded=1;whiteSpace=wrap;html=1;fontSize=17;verticalAlign=top;fontStyle=1;fillColor=#dae8fc;strokeColor=#6c8ebf;" parent="1" vertex="1">
          <mxGeometry x="610" y="180" width="520" height="310" as="geometry" />
        </mxCell>
        <mxCell id="I_TGFrH33rZZs5FY5V3y-22" value="Task Execution" style="rounded=1;whiteSpace=wrap;html=1;fontSize=16;fillColor=#d5e8d4;strokeColor=#82b366;" parent="1" vertex="1">
          <mxGeometry x="640" y="230" width="127" height="60" as="geometry" />
        </mxCell>
        <mxCell id="I_TGFrH33rZZs5FY5V3y-23" value="Data Exchange" style="rounded=1;whiteSpace=wrap;html=1;fontSize=16;fillColor=#e1d5e7;strokeColor=#9673a6;" parent="1" vertex="1">
          <mxGeometry x="640" y="318" width="127" height="58" as="geometry" />
        </mxCell>
        <mxCell id="I_TGFrH33rZZs5FY5V3y-24" value="Memery Management" style="rounded=1;whiteSpace=wrap;html=1;fontSize=16;fillColor=#f8cecc;strokeColor=#b85450;" parent="1" vertex="1">
          <mxGeometry x="640" y="400" width="127" height="60" as="geometry" />
        </mxCell>
        <mxCell id="I_TGFrH33rZZs5FY5V3y-25" value="Actor System" style="rounded=1;whiteSpace=wrap;html=1;fontSize=16;fillColor=#d5e8d4;strokeColor=#82b366;" parent="1" vertex="1">
          <mxGeometry x="798" y="400" width="127" height="60" as="geometry" />
        </mxCell>
        <mxCell id="I_TGFrH33rZZs5FY5V3y-26" value="Network Manager" style="rounded=1;whiteSpace=wrap;html=1;fontSize=16;fillColor=#b1ddf0;strokeColor=#10739e;" parent="1" vertex="1">
          <mxGeometry x="965" y="400" width="127" height="60" as="geometry" />
        </mxCell>
        <mxCell id="I_TGFrH33rZZs5FY5V3y-27" value="Task Scheduling" style="rounded=1;whiteSpace=wrap;html=1;fontSize=16;fillColor=#ffe6cc;strokeColor=#d79b00;verticalAlign=top;fontStyle=1" parent="1" vertex="1">
          <mxGeometry x="800" y="230" width="290" height="150" as="geometry" />
        </mxCell>
        <mxCell id="I_TGFrH33rZZs5FY5V3y-28" value="Task Slot" style="rounded=1;whiteSpace=wrap;html=1;fontSize=14;fillColor=#f5f5f5;strokeColor=#666666;verticalAlign=top;fontColor=#333333;" parent="1" vertex="1">
          <mxGeometry x="820" y="270" width="70" height="90" as="geometry" />
        </mxCell>
        <mxCell id="I_TGFrH33rZZs5FY5V3y-30" value="" style="rounded=1;whiteSpace=wrap;html=1;fontSize=16;fillColor=#60a917;strokeColor=#2D7600;fontColor=#ffffff;" parent="1" vertex="1">
          <mxGeometry x="835" y="330" width="40" height="16" as="geometry" />
        </mxCell>
        <mxCell id="I_TGFrH33rZZs5FY5V3y-31" value="" style="rounded=1;whiteSpace=wrap;html=1;fontSize=16;fillColor=#60a917;strokeColor=#2D7600;fontColor=#ffffff;" parent="1" vertex="1">
          <mxGeometry x="835" y="302" width="40" height="16" as="geometry" />
        </mxCell>
        <mxCell id="I_TGFrH33rZZs5FY5V3y-38" value="Task Slot" style="rounded=1;whiteSpace=wrap;html=1;fontSize=14;fillColor=#f5f5f5;strokeColor=#666666;verticalAlign=top;fontColor=#333333;" parent="1" vertex="1">
          <mxGeometry x="910" y="270" width="70" height="90" as="geometry" />
        </mxCell>
        <mxCell id="I_TGFrH33rZZs5FY5V3y-39" value="" style="rounded=1;whiteSpace=wrap;html=1;fontSize=16;fillColor=#60a917;strokeColor=#2D7600;fontColor=#ffffff;" parent="1" vertex="1">
          <mxGeometry x="925" y="330" width="40" height="16" as="geometry" />
        </mxCell>
        <mxCell id="I_TGFrH33rZZs5FY5V3y-40" value="" style="rounded=1;whiteSpace=wrap;html=1;fontSize=16;fillColor=#60a917;strokeColor=#2D7600;fontColor=#ffffff;" parent="1" vertex="1">
          <mxGeometry x="925" y="302" width="40" height="16" as="geometry" />
        </mxCell>
        <mxCell id="I_TGFrH33rZZs5FY5V3y-41" value="Task Slot" style="rounded=1;whiteSpace=wrap;html=1;fontSize=14;fillColor=#f5f5f5;strokeColor=#666666;verticalAlign=top;fontColor=#333333;" parent="1" vertex="1">
          <mxGeometry x="1000" y="270" width="70" height="90" as="geometry" />
        </mxCell>
        <mxCell id="I_TGFrH33rZZs5FY5V3y-42" value="" style="rounded=1;whiteSpace=wrap;html=1;fontSize=16;fillColor=#60a917;strokeColor=#2D7600;fontColor=#ffffff;" parent="1" vertex="1">
          <mxGeometry x="1015" y="330" width="40" height="16" as="geometry" />
        </mxCell>
        <mxCell id="I_TGFrH33rZZs5FY5V3y-43" value="" style="rounded=1;whiteSpace=wrap;html=1;fontSize=16;fillColor=#60a917;strokeColor=#2D7600;fontColor=#ffffff;" parent="1" vertex="1">
          <mxGeometry x="1015" y="302" width="40" height="16" as="geometry" />
        </mxCell>
        <mxCell id="I_TGFrH33rZZs5FY5V3y-48" value="Task Manager" style="rounded=1;whiteSpace=wrap;html=1;fontSize=16;verticalAlign=top;fontStyle=1;fillColor=#dae8fc;strokeColor=#6c8ebf;" parent="1" vertex="1">
          <mxGeometry x="1200" y="183" width="520" height="310" as="geometry" />
        </mxCell>
        <mxCell id="I_TGFrH33rZZs5FY5V3y-49" value="Task Execution" style="rounded=1;whiteSpace=wrap;html=1;fontSize=16;fillColor=#d5e8d4;strokeColor=#82b366;" parent="1" vertex="1">
          <mxGeometry x="1230" y="233" width="127" height="60" as="geometry" />
        </mxCell>
        <mxCell id="I_TGFrH33rZZs5FY5V3y-50" value="Data Exchange" style="rounded=1;whiteSpace=wrap;html=1;fontSize=16;fillColor=#e1d5e7;strokeColor=#9673a6;" parent="1" vertex="1">
          <mxGeometry x="1230" y="321" width="127" height="58" as="geometry" />
        </mxCell>
        <mxCell id="I_TGFrH33rZZs5FY5V3y-51" value="Memery Management" style="rounded=1;whiteSpace=wrap;html=1;fontSize=16;fillColor=#f8cecc;strokeColor=#b85450;" parent="1" vertex="1">
          <mxGeometry x="1230" y="403" width="127" height="60" as="geometry" />
        </mxCell>
        <mxCell id="I_TGFrH33rZZs5FY5V3y-52" value="Actor System" style="rounded=1;whiteSpace=wrap;html=1;fontSize=16;fillColor=#d5e8d4;strokeColor=#82b366;" parent="1" vertex="1">
          <mxGeometry x="1388" y="403" width="127" height="60" as="geometry" />
        </mxCell>
        <mxCell id="I_TGFrH33rZZs5FY5V3y-53" value="Network Manager" style="rounded=1;whiteSpace=wrap;html=1;fontSize=16;fillColor=#b1ddf0;strokeColor=#10739e;" parent="1" vertex="1">
          <mxGeometry x="1555" y="403" width="127" height="60" as="geometry" />
        </mxCell>
        <mxCell id="I_TGFrH33rZZs5FY5V3y-54" value="Task Scheduling" style="rounded=1;whiteSpace=wrap;html=1;fontSize=16;fillColor=#ffe6cc;strokeColor=#d79b00;verticalAlign=top;fontStyle=1" parent="1" vertex="1">
          <mxGeometry x="1390" y="233" width="290" height="150" as="geometry" />
        </mxCell>
        <mxCell id="I_TGFrH33rZZs5FY5V3y-55" value="Task Slot" style="rounded=1;whiteSpace=wrap;html=1;fontSize=14;fillColor=#f5f5f5;strokeColor=#666666;verticalAlign=top;fontColor=#333333;" parent="1" vertex="1">
          <mxGeometry x="1410" y="273" width="70" height="90" as="geometry" />
        </mxCell>
        <mxCell id="I_TGFrH33rZZs5FY5V3y-56" value="" style="rounded=1;whiteSpace=wrap;html=1;fontSize=16;fillColor=#60a917;strokeColor=#2D7600;fontColor=#ffffff;" parent="1" vertex="1">
          <mxGeometry x="1425" y="333" width="40" height="16" as="geometry" />
        </mxCell>
        <mxCell id="I_TGFrH33rZZs5FY5V3y-57" value="" style="rounded=1;whiteSpace=wrap;html=1;fontSize=16;fillColor=#60a917;strokeColor=#2D7600;fontColor=#ffffff;" parent="1" vertex="1">
          <mxGeometry x="1425" y="305" width="40" height="16" as="geometry" />
        </mxCell>
        <mxCell id="I_TGFrH33rZZs5FY5V3y-58" value="Task Slot" style="rounded=1;whiteSpace=wrap;html=1;fontSize=14;fillColor=#f5f5f5;strokeColor=#666666;verticalAlign=top;fontColor=#333333;" parent="1" vertex="1">
          <mxGeometry x="1500" y="273" width="70" height="90" as="geometry" />
        </mxCell>
        <mxCell id="I_TGFrH33rZZs5FY5V3y-59" value="" style="rounded=1;whiteSpace=wrap;html=1;fontSize=16;fillColor=#60a917;strokeColor=#2D7600;fontColor=#ffffff;" parent="1" vertex="1">
          <mxGeometry x="1515" y="333" width="40" height="16" as="geometry" />
        </mxCell>
        <mxCell id="I_TGFrH33rZZs5FY5V3y-60" value="" style="rounded=1;whiteSpace=wrap;html=1;fontSize=16;fillColor=#60a917;strokeColor=#2D7600;fontColor=#ffffff;" parent="1" vertex="1">
          <mxGeometry x="1515" y="305" width="40" height="16" as="geometry" />
        </mxCell>
        <mxCell id="I_TGFrH33rZZs5FY5V3y-61" value="Task Slot" style="rounded=1;whiteSpace=wrap;html=1;fontSize=14;fillColor=#f5f5f5;strokeColor=#666666;verticalAlign=top;fontColor=#333333;" parent="1" vertex="1">
          <mxGeometry x="1590" y="273" width="70" height="90" as="geometry" />
        </mxCell>
        <mxCell id="I_TGFrH33rZZs5FY5V3y-62" value="" style="rounded=1;whiteSpace=wrap;html=1;fontSize=16;fillColor=#60a917;strokeColor=#2D7600;fontColor=#ffffff;" parent="1" vertex="1">
          <mxGeometry x="1605" y="333" width="40" height="16" as="geometry" />
        </mxCell>
        <mxCell id="I_TGFrH33rZZs5FY5V3y-63" value="" style="rounded=1;whiteSpace=wrap;html=1;fontSize=16;fillColor=#60a917;strokeColor=#2D7600;fontColor=#ffffff;" parent="1" vertex="1">
          <mxGeometry x="1605" y="305" width="40" height="16" as="geometry" />
        </mxCell>
        <mxCell id="I_TGFrH33rZZs5FY5V3y-64" value="JVM Process" style="text;html=1;strokeColor=none;fillColor=none;align=center;verticalAlign=middle;whiteSpace=wrap;rounded=0;fontSize=14;fontColor=#FF0000;fontStyle=1" parent="1" vertex="1">
          <mxGeometry x="975" y="195" width="115" height="20" as="geometry" />
        </mxCell>
        <mxCell id="I_TGFrH33rZZs5FY5V3y-65" value="Thread Pool" style="text;html=1;strokeColor=none;fillColor=none;align=center;verticalAlign=middle;whiteSpace=wrap;rounded=0;fontSize=14;fontColor=#FF0000;fontStyle=1" parent="1" vertex="1">
          <mxGeometry x="980" y="250" width="115" height="20" as="geometry" />
        </mxCell>
        <mxCell id="bsNJvbGx7QUeNBY6XiJD-8" value="Task" style="edgeStyle=orthogonalEdgeStyle;rounded=0;orthogonalLoop=1;jettySize=auto;html=1;exitX=0.5;exitY=1;exitDx=0;exitDy=0;entryX=0.5;entryY=0;entryDx=0;entryDy=0;strokeColor=#d79b00;strokeWidth=2;fontSize=14;fontColor=#666666;fillColor=#ffe6cc;" parent="1" edge="1">
          <mxGeometry relative="1" as="geometry">
            <mxPoint x="1160" y="98" as="sourcePoint" />
            <mxPoint x="870" y="182" as="targetPoint" />
            <Array as="points">
              <mxPoint x="1160" y="140" />
              <mxPoint x="870" y="140" />
            </Array>
          </mxGeometry>
        </mxCell>
        <mxCell id="bsNJvbGx7QUeNBY6XiJD-9" style="edgeStyle=orthogonalEdgeStyle;rounded=0;orthogonalLoop=1;jettySize=auto;html=1;exitX=0.5;exitY=1;exitDx=0;exitDy=0;entryX=0.5;entryY=0;entryDx=0;entryDy=0;strokeColor=#d79b00;strokeWidth=2;fontSize=16;fontColor=#666666;fillColor=#ffe6cc;" parent="1" source="bsNJvbGx7QUeNBY6XiJD-1" target="I_TGFrH33rZZs5FY5V3y-48" edge="1">
          <mxGeometry relative="1" as="geometry">
            <Array as="points">
              <mxPoint x="1160" y="140" />
              <mxPoint x="1460" y="140" />
            </Array>
          </mxGeometry>
        </mxCell>
        <mxCell id="bsNJvbGx7QUeNBY6XiJD-11" value="Task" style="edgeLabel;html=1;align=center;verticalAlign=middle;resizable=0;points=[];fontSize=14;fontColor=#666666;" parent="bsNJvbGx7QUeNBY6XiJD-9" vertex="1" connectable="0">
          <mxGeometry x="-0.0827" relative="1" as="geometry">
            <mxPoint x="1" y="1" as="offset" />
          </mxGeometry>
        </mxCell>
        <mxCell id="bsNJvbGx7QUeNBY6XiJD-1" value="JobManager" style="rounded=1;whiteSpace=wrap;html=1;fontStyle=1;verticalAlign=top;fontSize=16;" parent="1" vertex="1">
          <mxGeometry x="860" y="6" width="600" height="90" as="geometry" />
        </mxCell>
        <mxCell id="bsNJvbGx7QUeNBY6XiJD-2" value="Actor System" style="rounded=1;whiteSpace=wrap;html=1;fontSize=16;fillColor=#d5e8d4;strokeColor=#82b366;" parent="1" vertex="1">
          <mxGeometry x="1050" y="46" width="220" height="40" as="geometry" />
        </mxCell>
        <mxCell id="bsNJvbGx7QUeNBY6XiJD-4" value="" style="endArrow=classic;startArrow=classic;html=1;fontSize=16;entryX=0;entryY=0.5;entryDx=0;entryDy=0;exitX=0.25;exitY=0;exitDx=0;exitDy=0;dashed=1;fillColor=#ffe6cc;strokeWidth=2;strokeColor=#7EA6E0;" parent="1" source="I_TGFrH33rZZs5FY5V3y-21" target="bsNJvbGx7QUeNBY6XiJD-1" edge="1">
          <mxGeometry width="50" height="50" relative="1" as="geometry">
            <mxPoint x="1070" y="250" as="sourcePoint" />
            <mxPoint x="1120" y="200" as="targetPoint" />
            <Array as="points">
              <mxPoint x="740" y="85" />
            </Array>
          </mxGeometry>
        </mxCell>
        <mxCell id="bsNJvbGx7QUeNBY6XiJD-5" value="heartbeat" style="edgeLabel;html=1;align=center;verticalAlign=middle;resizable=0;points=[];fontSize=16;fontColor=#666666;" parent="bsNJvbGx7QUeNBY6XiJD-4" vertex="1" connectable="0">
          <mxGeometry x="0.3116" relative="1" as="geometry">
            <mxPoint x="4" y="-22" as="offset" />
          </mxGeometry>
        </mxCell>
        <mxCell id="bsNJvbGx7QUeNBY6XiJD-6" value="" style="endArrow=classic;startArrow=classic;html=1;dashed=1;strokeColor=#7EA6E0;strokeWidth=2;fontSize=16;fontColor=#666666;entryX=1;entryY=0.5;entryDx=0;entryDy=0;exitX=0.75;exitY=0;exitDx=0;exitDy=0;" parent="1" source="I_TGFrH33rZZs5FY5V3y-48" target="bsNJvbGx7QUeNBY6XiJD-1" edge="1">
          <mxGeometry width="50" height="50" relative="1" as="geometry">
            <mxPoint x="1070" y="250" as="sourcePoint" />
            <mxPoint x="1120" y="200" as="targetPoint" />
            <Array as="points">
              <mxPoint x="1590" y="85" />
            </Array>
          </mxGeometry>
        </mxCell>
        <mxCell id="bsNJvbGx7QUeNBY6XiJD-7" value="heartbeat" style="edgeLabel;html=1;align=center;verticalAlign=middle;resizable=0;points=[];fontSize=16;fontColor=#666666;" parent="1" vertex="1" connectable="0">
          <mxGeometry x="798" y="36" as="geometry">
            <mxPoint x="739" y="-5" as="offset" />
          </mxGeometry>
        </mxCell>
        <mxCell id="bsNJvbGx7QUeNBY6XiJD-10" value="Deploy Task" style="text;html=1;strokeColor=none;fillColor=none;align=center;verticalAlign=middle;whiteSpace=wrap;rounded=0;fontSize=13;fontColor=#666666;" parent="1" vertex="1">
          <mxGeometry x="1099" y="106" width="110" height="20" as="geometry" />
        </mxCell>
        <mxCell id="bsNJvbGx7QUeNBY6XiJD-12" value="" style="endArrow=classic;startArrow=classic;html=1;strokeColor=#7EA6E0;strokeWidth=2;fontSize=14;fontColor=#666666;entryX=0.5;entryY=1;entryDx=0;entryDy=0;exitX=0.5;exitY=1;exitDx=0;exitDy=0;dashed=1;" parent="1" source="I_TGFrH33rZZs5FY5V3y-21" target="I_TGFrH33rZZs5FY5V3y-48" edge="1">
          <mxGeometry width="50" height="50" relative="1" as="geometry">
            <mxPoint x="1030" y="630" as="sourcePoint" />
            <mxPoint x="1080" y="580" as="targetPoint" />
            <Array as="points">
              <mxPoint x="1160" y="560" />
            </Array>
          </mxGeometry>
        </mxCell>
        <mxCell id="bsNJvbGx7QUeNBY6XiJD-13" value="Exchange Intermediate result" style="text;html=1;strokeColor=none;fillColor=none;align=center;verticalAlign=middle;whiteSpace=wrap;rounded=0;fontSize=14;fontColor=#666666;" parent="1" vertex="1">
          <mxGeometry x="1060" y="575" width="200" height="20" as="geometry" />
        </mxCell>
      </root>
    </mxGraphModel>
  </diagram>
  <diagram id="L2yIcVWqExJYlD31GJrs" name="QA">
    <mxGraphModel dx="1434" dy="844" grid="1" gridSize="10" guides="1" tooltips="1" connect="1" arrows="1" fold="1" page="1" pageScale="1" pageWidth="827" pageHeight="1169" math="0" shadow="0">
      <root>
        <mxCell id="0" />
        <mxCell id="1" parent="0" />
        <mxCell id="0L6vDF7dLQWWtfnHq_HV-1" value="&lt;h1&gt;&lt;font style=&quot;font-size: 18px;&quot;&gt;Flink 流处理为什么需要网络流控？&lt;/font&gt;&lt;/h1&gt;&lt;p&gt;&lt;font style=&quot;font-size: 15px;&quot;&gt;https://juejin.cn/post/6844903955831455752&lt;/font&gt;&lt;/p&gt;" style="text;html=1;strokeColor=none;fillColor=none;spacing=5;spacingTop=-20;whiteSpace=wrap;overflow=hidden;rounded=0;" vertex="1" parent="1">
          <mxGeometry x="50" y="170" width="410" height="80" as="geometry" />
        </mxCell>
      </root>
    </mxGraphModel>
  </diagram>
</mxfile>
